<svg width="50" height="50" viewBox="0 0 50 50" fill="none" xmlns="http://www.w3.org/2000/svg">
    <path d="M13.5414 28.9222C16.1393 28.9222 18.2358 27.7717 18.2358 24.7287V24.3763C18.2358 22.8733 17.4382 22.0569 16.3433 21.6488C17.2711 21.2219 17.7719 19.96 17.7719 18.6058C17.7719 16.1007 15.9909 15.2473 13.6341 15.2473C10.4428 15.2473 9.40402 17.1211 9.40402 18.5684C9.40402 19.4591 9.57072 19.7376 10.9066 19.7376C11.9828 19.7376 12.2612 19.3107 12.2612 18.6798C12.2612 17.9561 12.7251 17.7337 13.6341 17.7337C14.3952 17.7337 15.0074 17.9935 15.0074 19.0696C15.0074 20.5726 14.2651 20.6653 13.5601 20.6653C12.9292 20.6653 12.7251 21.2219 12.7251 21.7788C12.7251 22.3354 12.9292 22.892 13.5601 22.892C14.5806 22.892 15.3416 23.1331 15.3416 24.3763V24.7287C15.3416 25.935 14.896 26.3988 13.6345 26.3988C12.7995 26.3988 11.9831 26.1947 11.9831 25.3227C11.9831 24.6174 11.686 24.3576 10.4988 24.3576C9.47803 24.3576 9.12555 24.5804 9.12555 25.4154C9.12555 26.9741 10.3501 28.9222 13.5414 28.9222Z" fill="#727272"/>
    <path d="M25.0267 17.7707C25.8987 17.7707 26.6411 18.1419 26.6411 18.8469C26.6411 19.7002 27.346 19.9043 28.144 19.9043C29.0718 19.9043 29.4986 19.6262 29.4986 18.7355C29.4986 17.1955 28.2554 15.2473 25.1198 15.2473C22.4476 15.2473 20.388 16.4348 20.388 19.6262V24.5434C20.388 27.7347 22.3919 28.9222 24.9527 28.9222C27.5131 28.9222 29.4986 27.7347 29.4986 24.5434V24.3763C29.4986 21.4077 27.7172 20.4799 25.6019 20.4799C24.7116 20.4799 23.8765 20.6466 23.2826 21.2959V19.6262C23.2826 18.3456 23.9322 17.7707 25.0267 17.7707ZM24.934 22.7062C25.9918 22.7062 26.6041 23.2258 26.6041 24.5804V24.7474C26.6041 26.0276 25.9918 26.5842 24.9527 26.5842C23.9135 26.5842 23.2826 26.0276 23.2826 24.7474V24.4133C23.2826 23.1888 23.9322 22.7062 24.934 22.7062Z" fill="#727272"/>
    <path d="M36.2896 28.9222C38.8501 28.9222 40.8539 27.7347 40.8539 24.543V19.6262C40.8539 16.4344 38.8501 15.2473 36.2896 15.2473C33.7288 15.2473 31.7437 16.4344 31.7437 19.6262V24.543C31.7437 27.7347 33.7288 28.9222 36.2896 28.9222ZM34.6382 19.6262C34.6382 18.346 35.2505 17.7707 36.2896 17.7707C37.3287 17.7707 37.9593 18.346 37.9593 19.6262V24.5434C37.9593 25.8236 37.3287 26.3988 36.2896 26.3988C35.2505 26.3988 34.6382 25.8236 34.6382 24.5434V19.6262Z" fill="#727272"/>
    <path d="M44.8718 15.3846C46.2856 15.3846 47.4359 14.2343 47.4359 12.8204C47.4359 11.4066 46.2856 10.2563 44.8718 10.2563C43.4577 10.2563 42.3077 11.4066 42.3077 12.8204C42.3077 14.2343 43.4577 15.3846 44.8718 15.3846ZM44.8718 11.9657C45.343 11.9657 45.7265 12.3493 45.7265 12.8204C45.7265 13.2916 45.343 13.6752 44.8718 13.6752C44.4004 13.6752 44.0171 13.2916 44.0171 12.8204C44.0171 12.3493 44.4004 11.9657 44.8718 11.9657Z" fill="#727272"/>
    <path d="M45.5906 20.7523C44.9242 20.2942 44.0121 20.4624 43.5535 21.1292C43.095 21.7957 43.2636 22.7078 43.9301 23.1663C45.3625 24.1516 47.0703 25.7317 47.0703 27.6623C47.0703 29.414 45.6112 31.2286 42.9611 32.7728C40.0635 34.4608 35.9184 35.7155 31.2897 36.3049C30.4871 36.4071 29.9194 37.1407 30.0217 37.9433C30.1159 38.6829 30.7465 39.2231 31.4728 39.2231C31.5346 39.2231 31.5971 39.2193 31.6601 39.2113C36.742 38.5639 41.1598 37.2128 44.4359 35.3039C48.0759 33.1833 50 30.5409 50 27.6623C50 25.1263 48.4753 22.7367 45.5906 20.7523Z" fill="#C24600"/>
    <path d="M22.1294 33.2184C21.5576 32.6462 20.6299 32.6462 20.0581 33.2184C19.4859 33.7902 19.4859 34.718 20.0581 35.2898L21.3337 36.5658C16.65 36.232 12.347 35.2608 8.95462 33.7479C5.12581 32.0397 2.92969 29.8218 2.92969 27.6623C2.92969 25.9384 4.35104 24.1467 6.93169 22.617C7.62787 22.2042 7.85751 21.3059 7.44514 20.6101C7.03239 19.9139 6.13403 19.6842 5.43785 20.0966C0.943375 22.7608 0 25.6813 0 27.6623C0 31.0795 2.7565 34.1908 7.76138 36.4235C11.565 38.1199 16.3773 39.1895 21.5714 39.5172L20.0581 41.0309C19.4859 41.6027 19.4859 42.5305 20.0581 43.1023C20.3442 43.3884 20.7188 43.5314 21.0938 43.5314C21.4687 43.5314 21.8437 43.3884 22.1294 43.1023L26.0357 39.196C26.6079 38.6242 26.6079 37.6969 26.0357 37.1246L22.1294 33.2184Z" fill="#C24600"/>
</svg>
