<svg width="414" height="900" viewBox="0 0 414 900" fill="none" xmlns="http://www.w3.org/2000/svg">
    <mask id="mask0" mask-type="alpha" maskUnits="userSpaceOnUse" x="0" y="0" width="414" height="900">
        <rect width="414" height="900" fill="#F2F2F2"/>
    </mask>
    <g mask="url(#mask0)">
        <rect width="414" height="900" fill="#F2F2F2"/>
        <g style="mix-blend-mode:overlay">
            <path d="M-301.819 691.976C-454.818 641.6 -501.895 705.117 -535.731 716.068C-545.539 722.639 -569.568 737.095 -587.221 742.351C-604.875 747.608 -619.096 727.02 -624 716.068L-612.231 882.527L931 911V691.976C930.51 682.485 919.231 665.693 878.039 674.454C826.549 685.405 644.127 733.59 527.906 716.068C411.686 698.546 221.908 691.976 146.88 716.068C71.8515 740.161 -148.82 742.351 -301.819 691.976Z" fill="url(#paint0_linear)"/>
            <path d="M1889.52 416.012C2267.84 303.683 2385.94 439.378 2470.08 462.138C2494.54 476.053 2554.44 506.607 2598.33 517.496C2642.22 528.386 2677.04 483.672 2688.97 459.955L2663.36 818.914L-1162.86 918.441L-1167.57 446.509C-1166.56 426.046 -1138.95 389.586 -1036.62 407.444C-908.698 429.767 -455.301 529.08 -167.479 488.45C120.342 447.82 590.803 428.968 777.373 479.024C963.942 529.081 1511.2 528.341 1889.52 416.012Z" fill="url(#paint1_linear)"/>
            <path d="M1342.55 580.041C1721.34 514.638 1838.85 591.166 1922.89 603.724C1947.29 611.518 2007.05 628.605 2050.9 634.598C2094.74 640.591 2129.75 615.057 2141.78 601.54L2114.62 805.438L-1711.86 878.441L-1714.54 610.538C-1713.43 598.916 -1685.67 578.098 -1583.42 587.795C-1455.6 599.917 -1002.65 654.343 -714.668 630.036C-426.684 605.728 43.8384 592.996 230.184 620.61C416.53 648.223 963.769 645.443 1342.55 580.041Z" fill="url(#paint2_linear)"/>
            <path d="M-866.268 281.044C-1215.66 172.494 -1323.16 309.361 -1400.43 332.959C-1422.83 347.118 -1477.7 378.267 -1518.01 389.594C-1558.33 400.921 -1590.8 356.557 -1602 332.959L-1575.12 691.646L1949 753V281.044C1947.88 260.593 1922.12 224.409 1828.06 243.288C1710.47 266.886 1293.9 370.716 1028.49 332.959C763.094 295.203 329.717 281.044 158.382 332.959C-12.9528 384.874 -516.879 389.594 -866.268 281.044Z" fill="url(#paint3_linear)"/>
            <path d="M2626.05 450.213C3008.06 351.152 3121.36 490.886 3204.65 516.567C3228.61 531.327 3287.41 563.952 3330.89 576.366C3374.37 588.78 3410.73 545.309 3423.48 522.022L3385.36 879.869L-442 845.84L-430.239 374.031C-428.514 353.616 -399.651 318.141 -298.002 339.559C-170.941 366.331 278.716 481.402 567.78 450.839C856.843 420.276 1327.68 417.849 1512.39 474.385C1697.1 530.92 2244.05 549.275 2626.05 450.213Z" fill="url(#paint4_linear)"/>
            <path d="M2673.52 161.012C3051.84 48.6827 3169.94 184.378 3254.08 207.138C3278.54 221.053 3338.44 251.607 3382.33 262.496C3426.22 273.386 3461.04 228.672 3472.97 204.955L3447.36 563.914L-378.863 663.441L-383.571 191.509C-382.559 171.046 -354.951 134.586 -252.616 152.444C-124.698 174.767 328.699 274.08 616.521 233.45C904.342 192.82 1374.8 173.968 1561.37 224.024C1747.94 274.081 2295.2 273.341 2673.52 161.012Z" fill="url(#paint5_linear)"/>
            <path d="M1973.52 -3.98805C2351.84 -116.317 2469.94 19.3785 2554.08 42.1381C2578.54 56.0534 2638.44 86.6065 2682.33 97.4962C2726.22 108.386 2761.04 63.6725 2772.97 39.9545L2747.36 398.914L-1078.86 498.441L-1083.57 26.5089C-1082.56 6.04643 -1054.95 -30.414 -952.616 -12.5557C-824.698 9.76718 -371.301 109.08 -83.4794 68.4499C204.342 27.8203 674.803 8.96771 861.373 59.0243C1047.94 109.081 1595.2 108.341 1973.52 -3.98805Z" fill="url(#paint6_linear)"/>
        </g>
    </g>
    <defs>
        <linearGradient id="paint0_linear" x1="153.5" y1="672" x2="153.254" y2="809.831" gradientUnits="userSpaceOnUse">
            <stop stop-color="#FAFAFA"/>
            <stop offset="0.764118" stop-color="#F1F1F1" stop-opacity="0"/>
        </linearGradient>
        <linearGradient id="paint1_linear" x1="760.009" y1="384.233" x2="763.432" y2="681.214" gradientUnits="userSpaceOnUse">
            <stop stop-color="#F2F2F2"/>
            <stop offset="0.494792" stop-color="#F1F1F1" stop-opacity="0"/>
        </linearGradient>
        <linearGradient id="paint2_linear" x1="213.23" y1="566.87" x2="215.06" y2="735.46" gradientUnits="userSpaceOnUse">
            <stop stop-color="#FAFAFA"/>
            <stop offset="0.764118" stop-color="#F1F1F1" stop-opacity="0"/>
        </linearGradient>
        <linearGradient id="paint3_linear" x1="173.5" y1="238" x2="173" y2="535" gradientUnits="userSpaceOnUse">
            <stop stop-color="#FAFAFA"/>
            <stop offset="0.764118" stop-color="#F1F1F1" stop-opacity="0"/>
        </linearGradient>
        <linearGradient id="paint4_linear" x1="1498.34" y1="379.046" x2="1491.4" y2="675.965" gradientUnits="userSpaceOnUse">
            <stop stop-color="#EFEFEF"/>
            <stop offset="0.764118" stop-color="#F1F1F1" stop-opacity="0"/>
        </linearGradient>
        <linearGradient id="paint5_linear" x1="1544.01" y1="129.233" x2="1547.43" y2="426.214" gradientUnits="userSpaceOnUse">
            <stop stop-color="#F2F2F2"/>
            <stop offset="0.494792" stop-color="#F1F1F1" stop-opacity="0"/>
        </linearGradient>
        <linearGradient id="paint6_linear" x1="844.009" y1="-35.7665" x2="847.432" y2="261.214" gradientUnits="userSpaceOnUse">
            <stop stop-color="#FAFAFA"/>
            <stop offset="0.764118" stop-color="#F1F1F1" stop-opacity="0"/>
        </linearGradient>
    </defs>
</svg>
