<svg width="1980" height="670" viewBox="0 0 1980 670" fill="none" xmlns="http://www.w3.org/2000/svg">
    <rect width="1980" height="667.985" fill="#F2F2F2"/>
    <g style="mix-blend-mode:overlay">
        <path d="M-645.268 226.736C-994.657 117.37 -1102.16 255.266 -1179.43 279.042C-1201.83 293.307 -1256.7 324.69 -1297.01 336.102C-1337.33 347.514 -1369.8 302.817 -1381 279.042L-1354.12 640.425L2170 702.241V226.736C2168.88 206.131 2143.12 169.676 2049.06 188.696C1931.47 212.471 1514.9 317.082 1249.49 279.042C984.094 241.001 550.717 226.736 379.382 279.042C208.047 331.347 -295.879 336.102 -645.268 226.736Z" fill="url(#paint0_linear)"/>
        <path d="M2847.05 397.177C3229.06 297.371 3342.36 438.155 3425.65 464.03C3449.61 478.901 3508.41 511.771 3551.89 524.278C3595.37 536.786 3631.73 492.988 3644.48 469.526L3606.36 830.064L-221 795.779L-209.239 320.422C-207.514 299.854 -178.651 264.112 -77.0017 285.691C50.0597 312.664 499.716 428.601 788.78 397.808C1077.84 367.015 1548.68 364.57 1733.39 421.531C1918.1 478.491 2465.05 496.984 2847.05 397.177Z" fill="url(#paint1_linear)"/>
        <path d="M2976.52 35.2751C3354.84 -77.8987 3472.94 58.8174 3557.08 81.7481C3581.54 95.7681 3641.44 126.551 3685.33 137.522C3729.22 148.494 3764.04 103.444 3775.97 79.5481L3750.36 441.207L-75.8626 541.482L-80.5705 66.0014C-79.5585 45.3851 -51.9509 8.65049 50.3836 26.6431C178.302 49.1338 631.699 149.193 919.521 108.258C1207.34 67.3226 1677.8 48.3283 1864.37 98.7612C2050.94 149.194 2598.2 148.449 2976.52 35.2751Z" fill="url(#paint2_linear)"/>
        <path d="M2191.52 -83.672C2569.83 -196.817 2687.94 -60.0925 2772.09 -37.1555C2796.55 -23.1338 2856.45 7.65352 2900.34 18.6283C2944.23 29.6032 2979.05 -15.4438 2990.97 -39.3391L2965.39 322.317L-860.827 422.305L-865.57 -53.1749C-864.56 -73.7912 -836.955 -110.524 -734.619 -92.5234C-606.699 -70.0232 -153.293 30.0699 134.526 -10.8437C422.345 -51.7572 892.805 -70.7162 1079.38 -20.2694C1265.95 30.1775 1813.21 29.4734 2191.52 -83.672Z" fill="url(#paint3_linear)"/>
    </g>
    <defs>
        <linearGradient id="paint0_linear" x1="394.5" y1="183.368" x2="393.992" y2="482.601" gradientUnits="userSpaceOnUse">
            <stop stop-color="#FAFAFA"/>
            <stop offset="0.764118" stop-color="#F1F1F1" stop-opacity="0"/>
        </linearGradient>
        <linearGradient id="paint1_linear" x1="1719.34" y1="325.475" x2="1712.29" y2="624.624" gradientUnits="userSpaceOnUse">
            <stop stop-color="#EFEFEF"/>
            <stop offset="0.764118" stop-color="#F1F1F1" stop-opacity="0"/>
        </linearGradient>
        <linearGradient id="paint2_linear" x1="1847.01" y1="3.25774" x2="1850.48" y2="302.471" gradientUnits="userSpaceOnUse">
            <stop stop-color="#F2F2F2"/>
            <stop offset="0.494792" stop-color="#F1F1F1" stop-opacity="0"/>
        </linearGradient>
        <linearGradient id="paint3_linear" x1="1062.01" y1="-115.774" x2="1065.46" y2="183.439" gradientUnits="userSpaceOnUse">
            <stop stop-color="#FAFAFA"/>
            <stop offset="0.764118" stop-color="#F1F1F1" stop-opacity="0"/>
        </linearGradient>
    </defs>
</svg>
