<svg width="18" height="20" viewBox="0 0 18 20" fill="none" xmlns="http://www.w3.org/2000/svg">
    <path d="M15.5 8.33337C15.5 14.1667 8.75 19.1667 8.75 19.1667C8.75 19.1667 2 14.1667 2 8.33337C2 6.34425 2.71116 4.4366 3.97703 3.03007C5.2429 1.62355 6.95979 0.833374 8.75 0.833374C10.5402 0.833374 12.2571 1.62355 13.523 3.03007C14.7888 4.4366 15.5 6.34425 15.5 8.33337Z" stroke="white" stroke-linecap="round" stroke-linejoin="round"/>
    <path d="M8.5 10.8334C9.88071 10.8334 11 9.71409 11 8.33337C11 6.95266 9.88071 5.83337 8.5 5.83337C7.11929 5.83337 6 6.95266 6 8.33337C6 9.71409 7.11929 10.8334 8.5 10.8334Z" stroke="white" stroke-linecap="round" stroke-linejoin="round"/>
</svg>
